<svg width="449" height="64" viewBox="0 0 449 64" fill="none" xmlns="http://www.w3.org/2000/svg">
<g filter="url(#filter0_d_1_6)">
<path d="M281.688 55.625C278.979 55.625 276.562 54.9375 274.438 53.5625C272.333 52.1875 270.677 50.1979 269.469 47.5938C268.26 44.9688 267.656 41.7917 267.656 38.0625C267.656 34.2917 268.281 31.1042 269.531 28.5C270.802 25.8958 272.49 23.9167 274.594 22.5625C276.698 21.2083 279.021 20.5312 281.562 20.5312C283.125 20.5312 284.51 20.7708 285.719 21.25C286.927 21.7083 287.969 22.3646 288.844 23.2188C289.74 24.0729 290.469 25.0833 291.031 26.25H291.156V8.4375H303.688V55H291.281V49.5938H291.125C290.625 50.8438 289.927 51.9167 289.031 52.8125C288.156 53.7083 287.094 54.4062 285.844 54.9062C284.615 55.3854 283.229 55.625 281.688 55.625ZM285.812 45.875C286.958 45.875 287.958 45.5625 288.812 44.9375C289.667 44.2917 290.333 43.3854 290.812 42.2188C291.292 41.0312 291.531 39.6458 291.531 38.0625C291.531 36.4375 291.292 35.0417 290.812 33.875C290.333 32.7083 289.667 31.8125 288.812 31.1875C287.958 30.5417 286.958 30.2188 285.812 30.2188C284.667 30.2188 283.688 30.5417 282.875 31.1875C282.083 31.8125 281.479 32.7083 281.062 33.875C280.646 35.0417 280.438 36.4375 280.438 38.0625C280.438 39.6667 280.646 41.0521 281.062 42.2188C281.479 43.3854 282.083 44.2917 282.875 44.9375C283.688 45.5625 284.667 45.875 285.812 45.875ZM322.831 55.6875C319.269 55.6875 316.154 54.9688 313.487 53.5312C310.821 52.0729 308.748 50.0208 307.269 47.375C305.81 44.7292 305.081 41.6458 305.081 38.125C305.081 34.6458 305.81 31.5833 307.269 28.9375C308.748 26.2917 310.79 24.2292 313.394 22.75C316.019 21.2708 319.071 20.5312 322.55 20.5312C325.133 20.5312 327.477 20.9479 329.581 21.7812C331.706 22.5938 333.54 23.7708 335.081 25.3125C336.623 26.8333 337.8 28.6562 338.612 30.7812C339.446 32.9062 339.862 35.2812 339.862 37.9062V41.0312H308.862V34.0938H334.112L328.3 35.4062C328.3 34.1146 328.081 33.0312 327.644 32.1562C327.227 31.2604 326.612 30.5833 325.8 30.125C324.987 29.6458 323.987 29.4062 322.8 29.4062C321.612 29.4062 320.612 29.6458 319.8 30.125C318.987 30.5833 318.362 31.2604 317.925 32.1562C317.508 33.0312 317.3 34.1146 317.3 35.4062V40.6875C317.3 42.0417 317.54 43.1875 318.019 44.125C318.498 45.0625 319.175 45.7708 320.05 46.25C320.946 46.7083 321.998 46.9375 323.206 46.9375C324.081 46.9375 324.873 46.8229 325.581 46.5938C326.29 46.3646 326.894 46.0312 327.394 45.5938C327.894 45.1562 328.269 44.6354 328.519 44.0312L339.581 44.75C339.102 46.9167 338.092 48.8229 336.55 50.4688C335.008 52.1146 333.071 53.3958 330.737 54.3125C328.404 55.2292 325.769 55.6875 322.831 55.6875ZM349.35 55L337.256 21.125H350.35L354.6 36C355.246 38.2917 355.85 40.6146 356.412 42.9688C356.975 45.3229 357.527 47.7604 358.069 50.2812H355.569C356.09 47.7604 356.621 45.3333 357.162 43C357.704 40.6458 358.298 38.3125 358.944 36L363.069 21.125H376.006L363.881 55H349.35ZM407.606 6.25L392.606 62H381.981L396.981 6.25H407.606ZM443.594 41.5625L409.781 55.0625V43.625L431.344 36.1875L430.969 36.75V35.4375L431.344 36L409.781 28.5625V17.0625L443.594 30.625V41.5625Z" fill="#ff3d4e"/>
<path d="M4.78125 36.3438V27.125L37.5312 13.25V23.4062L15.8125 31.6562L16.1562 31.125V32.3438L15.8125 31.8438L37.5312 40.0625V50.1875L4.78125 36.3438ZM43.2687 55V8.4375H62.3312C65.8729 8.4375 68.9354 9.09375 71.5187 10.4062C74.1229 11.7188 76.1229 13.5729 77.5187 15.9688C78.9146 18.3438 79.6125 21.1354 79.6125 24.3438C79.6125 27.5521 78.9042 30.3438 77.4875 32.7188C76.0708 35.0729 74.05 36.9062 71.425 38.2188C68.8208 39.5104 65.7271 40.1562 62.1437 40.1562H49.8625V31.125H60.8625C62.4667 31.125 63.8312 30.8438 64.9562 30.2812C66.0812 29.7188 66.9354 28.9271 67.5187 27.9062C68.1229 26.8854 68.425 25.6979 68.425 24.3438C68.425 22.9479 68.1229 21.75 67.5187 20.75C66.9354 19.75 66.0812 18.9792 64.9562 18.4375C63.8312 17.875 62.4562 17.5938 60.8312 17.5938H54.425V55H43.2687ZM81.35 55V21.125H92.1937V55H81.35ZM86.7562 17.5312C85.1104 17.5312 83.7354 17.0208 82.6312 16C81.5271 14.9792 80.975 13.7083 80.975 12.1875C80.975 10.6458 81.5271 9.375 82.6312 8.375C83.7354 7.35417 85.1104 6.84375 86.7562 6.84375C88.4021 6.84375 89.7771 7.35417 90.8812 8.375C92.0062 9.375 92.5687 10.6458 92.5687 12.1875C92.5687 13.7083 92.0062 14.9792 90.8812 16C89.7771 17.0208 88.4021 17.5312 86.7562 17.5312ZM95.5875 55V48.2812L111.525 29.7188V29.5625H95.8063V21.125H124.306V28.375L109.088 46.4375V46.5938H124.713V55H95.5875ZM128.137 55V48.2812L144.075 29.7188V29.5625H128.356V21.125H156.856V28.375L141.637 46.4375V46.5938H157.262V55H128.137ZM170.594 55.5938C168.385 55.5938 166.417 55.2292 164.688 54.5C162.979 53.75 161.635 52.6354 160.656 51.1562C159.677 49.6771 159.188 47.8125 159.188 45.5625C159.188 43.6667 159.521 42.0729 160.188 40.7812C160.875 39.4896 161.812 38.4479 163 37.6562C164.188 36.8438 165.552 36.2292 167.094 35.8125C168.656 35.375 170.323 35.0833 172.094 34.9375C174.073 34.7708 175.656 34.5938 176.844 34.4062C178.052 34.1979 178.917 33.9062 179.438 33.5312C179.979 33.1562 180.25 32.625 180.25 31.9375V31.7812C180.25 31.0521 180.062 30.4271 179.688 29.9062C179.312 29.3854 178.771 28.9896 178.062 28.7188C177.375 28.4271 176.552 28.2812 175.594 28.2812C174.594 28.2812 173.719 28.4271 172.969 28.7188C172.219 29.0104 171.615 29.4375 171.156 30C170.698 30.5417 170.396 31.1771 170.25 31.9062L160.312 31.3438C160.604 29.1354 161.385 27.2292 162.656 25.625C163.948 24 165.698 22.75 167.906 21.875C170.115 20.9792 172.76 20.5312 175.844 20.5312C178.135 20.5312 180.208 20.7917 182.062 21.3125C183.938 21.8333 185.542 22.5938 186.875 23.5938C188.208 24.5729 189.229 25.7812 189.938 27.2188C190.646 28.6354 191 30.2604 191 32.0938V55H180.625V50.25H180.406C179.781 51.4375 179 52.4271 178.062 53.2188C177.146 54.0104 176.062 54.6042 174.812 55C173.583 55.3958 172.177 55.5938 170.594 55.5938ZM173.875 48.4688C175.083 48.4688 176.177 48.2396 177.156 47.7812C178.135 47.3021 178.906 46.6458 179.469 45.8125C180.052 44.9583 180.344 43.9792 180.344 42.875V39.7188C180.052 39.8646 179.688 40.0104 179.25 40.1562C178.833 40.2812 178.354 40.3958 177.812 40.5C177.292 40.6042 176.74 40.7083 176.156 40.8125C175.594 40.9167 175.01 41.0208 174.406 41.125C173.406 41.2708 172.531 41.5104 171.781 41.8438C171.052 42.1771 170.479 42.6146 170.062 43.1562C169.646 43.6771 169.438 44.3125 169.438 45.0625C169.438 45.7917 169.625 46.4167 170 46.9375C170.396 47.4375 170.917 47.8229 171.562 48.0938C172.229 48.3438 173 48.4688 173.875 48.4688ZM194.363 55V21.125H204.863V27.1875H205.081C205.685 25 206.665 23.4062 208.019 22.4062C209.394 21.3854 211.123 20.875 213.206 20.875C213.748 20.875 214.269 20.8958 214.769 20.9375C215.269 20.9583 215.748 21 216.206 21.0625V30.2188C215.748 30.1354 215.102 30.0729 214.269 30.0312C213.435 29.9688 212.654 29.9375 211.925 29.9375C210.613 29.9375 209.446 30.2292 208.425 30.8125C207.425 31.375 206.633 32.1979 206.05 33.2812C205.488 34.3646 205.206 35.6458 205.206 37.125V55H194.363ZM217.475 55V21.125H228.319V55H217.475ZM222.881 17.5312C221.235 17.5312 219.86 17.0208 218.756 16C217.652 14.9792 217.1 13.7083 217.1 12.1875C217.1 10.6458 217.652 9.375 218.756 8.375C219.86 7.35417 221.235 6.84375 222.881 6.84375C224.527 6.84375 225.902 7.35417 227.006 8.375C228.131 9.375 228.694 10.6458 228.694 12.1875C228.694 13.7083 228.131 14.9792 227.006 16C225.902 17.0208 224.527 17.5312 222.881 17.5312ZM241.619 55.5938C239.41 55.5938 237.442 55.2292 235.712 54.5C234.004 53.75 232.66 52.6354 231.681 51.1562C230.702 49.6771 230.212 47.8125 230.212 45.5625C230.212 43.6667 230.546 42.0729 231.212 40.7812C231.9 39.4896 232.837 38.4479 234.025 37.6562C235.212 36.8438 236.577 36.2292 238.119 35.8125C239.681 35.375 241.348 35.0833 243.119 34.9375C245.098 34.7708 246.681 34.5938 247.869 34.4062C249.077 34.1979 249.942 33.9062 250.462 33.5312C251.004 33.1562 251.275 32.625 251.275 31.9375V31.7812C251.275 31.0521 251.087 30.4271 250.712 29.9062C250.337 29.3854 249.796 28.9896 249.087 28.7188C248.4 28.4271 247.577 28.2812 246.619 28.2812C245.619 28.2812 244.744 28.4271 243.994 28.7188C243.244 29.0104 242.64 29.4375 242.181 30C241.723 30.5417 241.421 31.1771 241.275 31.9062L231.337 31.3438C231.629 29.1354 232.41 27.2292 233.681 25.625C234.973 24 236.723 22.75 238.931 21.875C241.14 20.9792 243.785 20.5312 246.869 20.5312C249.16 20.5312 251.233 20.7917 253.087 21.3125C254.962 21.8333 256.567 22.5938 257.9 23.5938C259.233 24.5729 260.254 25.7812 260.962 27.2188C261.671 28.6354 262.025 30.2604 262.025 32.0938V55H251.65V50.25H251.431C250.806 51.4375 250.025 52.4271 249.087 53.2188C248.171 54.0104 247.087 54.6042 245.837 55C244.608 55.3958 243.202 55.5938 241.619 55.5938ZM244.9 48.4688C246.108 48.4688 247.202 48.2396 248.181 47.7812C249.16 47.3021 249.931 46.6458 250.494 45.8125C251.077 44.9583 251.369 43.9792 251.369 42.875V39.7188C251.077 39.8646 250.712 40.0104 250.275 40.1562C249.858 40.2812 249.379 40.3958 248.837 40.5C248.317 40.6042 247.765 40.7083 247.181 40.8125C246.619 40.9167 246.035 41.0208 245.431 41.125C244.431 41.2708 243.556 41.5104 242.806 41.8438C242.077 42.1771 241.504 42.6146 241.087 43.1562C240.671 43.6771 240.462 44.3125 240.462 45.0625C240.462 45.7917 240.65 46.4167 241.025 46.9375C241.421 47.4375 241.942 47.8229 242.587 48.0938C243.254 48.3438 244.025 48.4688 244.9 48.4688Z" fill="white"/>
</g>
<defs>
<filter id="filter0_d_1_6" x="3.78125" y="6.25" width="440.812" height="57.75" filterUnits="userSpaceOnUse" color-interpolation-filters="sRGB">
<feFlood flood-opacity="0" result="BackgroundImageFix"/>
<feColorMatrix in="SourceAlpha" type="matrix" values="0 0 0 0 0 0 0 0 0 0 0 0 0 0 0 0 0 0 127 0" result="hardAlpha"/>
<feOffset dy="1"/>
<feGaussianBlur stdDeviation="0.5"/>
<feComposite in2="hardAlpha" operator="out"/>
<feColorMatrix type="matrix" values="0 0 0 0 0 0 0 0 0 0 0 0 0 0 0 0 0 0 0.3 0"/>
<feBlend mode="normal" in2="BackgroundImageFix" result="effect1_dropShadow_1_6"/>
<feBlend mode="normal" in="SourceGraphic" in2="effect1_dropShadow_1_6" result="shape"/>
</filter>
</defs>
</svg>
